<svg version="1.1" id="Layer_1" xmlns="http://www.w3.org/2000/svg" xmlns:xlink="http://www.w3.org/1999/xlink" x="0px" y="0px"
	 width="100%" viewBox="0 0 517 291" enable-background="new 0 0 517 291" xml:space="preserve">
<path fill="#E3E4E7" opacity="1.000000" stroke="none" 
	d="
M518.000000,3.000002 
	C518.000000,58.354229 518.000000,113.708458 517.653442,169.411377 
	C515.460327,161.186142 509.380829,157.139206 501.531921,154.923828 
	C496.898804,153.616119 492.201141,152.439163 487.737793,150.681992 
	C486.217560,150.083496 484.562317,147.979019 484.383362,146.402100 
	C484.237762,145.119324 485.910309,143.117294 487.289886,142.271439 
	C491.271423,139.830231 498.590576,140.473480 501.083374,144.269272 
	C503.949341,148.633224 506.721313,147.646240 510.206207,146.014496 
	C512.098999,145.128250 514.077698,144.425598 516.213623,143.560760 
	C515.664734,142.321213 515.398132,141.537430 514.993469,140.833008 
	C509.599091,131.443130 497.942505,127.498245 485.126099,130.705032 
	C476.189667,132.941010 470.807831,138.757812 470.341064,146.684891 
	C469.899384,154.185760 473.683350,159.490021 482.540161,162.874969 
	C487.327179,164.704483 492.400574,165.771576 497.295227,167.337479 
	C500.231689,168.276932 503.703705,169.875656 502.608276,173.335281 
	C501.908264,175.546021 498.759949,177.980515 496.341217,178.460739 
	C489.100189,179.898376 483.401947,177.008377 480.054352,169.969772 
	C475.922150,171.494675 472.070709,172.915970 467.152374,174.730957 
	C469.911591,178.347717 471.835724,181.952438 474.715790,184.458633 
	C487.559387,195.635040 509.518219,190.984055 516.867188,175.804642 
	C517.044067,175.439255 517.613586,175.263962 518.000000,175.000000 
	C518.000000,213.977676 518.000000,252.955338 518.000000,291.966492 
	C345.787659,291.966492 173.575287,291.966492 1.000000,291.966492 
	C1.000000,248.646454 1.000000,205.291885 1.347284,161.516571 
	C1.939746,161.317383 2.255407,161.496063 2.419946,161.766663 
	C9.056587,172.681229 16.646852,175.085861 28.471821,170.331238 
	C29.811476,169.792572 32.033485,170.267044 33.361340,171.071899 
	C42.044792,176.335220 50.542042,181.905594 59.221813,187.175232 
	C61.660980,188.656097 62.514187,190.048035 62.125652,193.088303 
	C60.918205,202.536560 66.440247,210.325668 75.620857,212.375076 
	C82.815788,213.981216 89.244095,212.260849 94.106567,206.468155 
	C98.820969,200.851822 99.616524,194.455872 96.817078,187.738235 
	C94.161636,181.366165 89.312416,177.194901 82.376846,177.217194 
	C77.798653,177.231918 75.986595,175.324448 74.456367,171.621857 
	C72.046959,165.791977 67.233887,160.119781 67.218849,154.370926 
	C67.203781,148.612488 71.975502,142.903824 74.362030,137.056152 
	C76.114197,132.762848 78.263359,129.896194 83.620590,129.985916 
	C86.162956,130.028488 89.072998,128.387833 91.242149,126.749390 
	C98.557137,121.224113 100.394150,111.477783 96.013664,103.424484 
	C92.001129,96.047646 82.998177,92.611565 74.521660,95.221817 
	C66.064857,97.825996 60.708134,105.998322 62.222260,115.015274 
	C62.744751,118.126839 61.819988,119.490578 59.511192,120.992828 
	C51.138584,126.440559 42.800011,131.945557 34.576694,137.614746 
	C32.136921,139.296753 30.296284,139.546112 27.452425,138.184753 
	C18.342005,133.823532 9.149518,136.811035 3.577590,145.360031 
	C2.918872,146.370697 1.868709,147.126205 1.000000,148.000000 
	C1.000000,99.979103 1.000000,51.958210 1.312835,3.411220 
	C2.083781,2.256751 2.541890,1.628375 3.000000,1.000000 
	C6.692909,1.000000 10.385818,1.000000 14.614291,1.351716 
	C17.084040,3.657905 18.768295,3.889114 20.000000,1.000000 
	C21.066669,1.000000 22.133339,1.000000 23.703747,1.387774 
	C26.052887,2.178658 27.897833,2.931453 29.743763,2.933881 
	C79.516380,2.999362 129.289139,3.010785 179.061615,2.905362 
	C181.042419,2.901167 183.020599,1.663142 185.000000,1.000001 
	C186.066666,1.000000 187.133347,1.000000 188.703354,1.387978 
	C190.217911,2.178226 191.228043,2.928356 192.240524,2.931545 
	C213.681915,2.999079 235.123718,3.013073 256.564697,2.897941 
	C257.713165,2.891774 258.855042,1.660807 260.000000,1.000001 
	C260.750000,1.000000 261.500000,1.000000 262.727539,1.386189 
	C267.690948,3.857850 274.499542,3.476637 277.000000,1.000000 
	C279.370575,1.000000 281.741119,1.000000 284.658264,1.387650 
	C289.830505,2.152008 294.452759,2.603912 299.085968,2.814440 
	C299.695251,2.842123 300.360626,1.635145 301.000000,1.000002 
	C301.750000,1.000000 302.500000,1.000000 303.713379,1.367392 
	C306.668793,3.510861 309.044525,4.206717 311.000000,1.000000 
	C312.388885,1.000000 313.777802,1.000000 315.686737,1.387762 
	C321.607269,1.962952 327.007416,2.164017 332.409424,2.280643 
	C332.596985,2.284692 332.802734,1.445931 333.000000,0.999998 
	C333.444458,1.000000 333.888885,1.000000 334.762268,1.377161 
	C338.277924,3.260215 341.342285,4.504484 344.000000,1.000000 
	C347.030609,1.000000 350.061188,1.000000 353.644470,1.379344 
	C357.610779,3.392701 360.989838,4.579423 364.000000,1.000000 
	C365.714355,1.000000 367.428711,1.000000 369.674805,1.387770 
	C375.939667,1.963118 381.672546,2.163628 387.407135,2.281211 
	C387.595917,2.285082 387.802002,1.446099 388.000000,1.000004 
	C389.714355,1.000000 391.428711,1.000000 393.655243,1.358279 
	C396.349152,3.411316 398.423828,4.234449 400.000000,1.000000 
	C401.714355,1.000000 403.428711,1.000000 405.676300,1.387388 
	C406.721710,2.142362 407.230591,2.825289 407.746521,2.830632 
	C416.688446,2.923229 425.631866,2.983476 434.572815,2.874420 
	C435.389374,2.864460 436.191284,1.653333 437.000000,0.999994 
	C438.388885,1.000000 439.777802,1.000000 441.687256,1.387403 
	C447.607330,1.962511 453.006561,2.163903 458.407623,2.280756 
	C458.595734,2.284827 458.802124,1.445979 459.000000,1.000003 
	C459.750000,1.000000 460.500000,1.000000 461.730225,1.387478 
	C468.275818,1.962985 474.340973,2.163259 480.407715,2.282046 
	C480.596710,2.285746 480.802185,1.446345 481.000000,0.999999 
	C492.020905,1.000000 503.041779,1.000000 514.590942,1.337414 
	C516.079407,2.116553 517.039734,2.558279 518.000000,3.000002 
M177.722824,180.834198 
	C183.378738,189.263901 188.083710,190.795288 199.714539,187.917755 
	C199.714539,162.379608 199.714539,136.810272 199.714539,111.195557 
	C194.823853,111.195557 190.264069,111.195557 185.134155,111.195557 
	C185.134155,128.856293 185.134155,146.171356 185.134155,164.681488 
	C183.861908,163.027969 183.355881,162.433044 182.917770,161.791718 
	C172.021179,145.840515 161.146225,129.874496 150.211197,113.949722 
	C149.413528,112.788063 148.232422,111.106934 147.156754,111.050285 
	C141.589355,110.757095 135.998260,110.914009 130.499573,110.914009 
	C130.499573,137.205032 130.499573,162.769852 130.499573,188.416458 
	C135.431625,188.416458 140.014099,188.416458 145.077728,188.416458 
	C145.077728,170.239655 145.077728,152.380585 145.077728,134.336761 
	C145.852219,134.607346 146.261841,134.618317 146.396774,134.816406 
	C156.708481,149.953461 166.998520,165.105240 177.722824,180.834198 
M318.886475,173.578308 
	C330.862061,189.901093 354.245483,195.190567 372.092529,185.823792 
	C397.373413,172.555481 397.044922,143.026596 387.075806,127.185326 
	C374.925079,107.877373 346.041321,103.018097 327.591431,116.939995 
	C310.605804,129.756973 306.717316,153.629501 318.886475,173.578308 
M402.070984,143.530563 
	C402.070984,166.104034 402.070984,188.677505 402.070984,211.450974 
	C407.185486,211.450974 411.739685,211.450974 416.950562,211.450974 
	C416.950562,201.824249 416.950562,192.506577 416.950562,182.593430 
	C431.045074,195.983307 453.755402,191.266220 460.527679,173.768768 
	C462.826324,167.829773 463.302979,160.710175 462.820801,154.264069 
	C461.621552,138.231277 447.929230,127.549057 432.278839,130.327667 
	C426.911255,131.280640 421.949646,134.520309 416.932556,136.659851 
	C416.837524,135.577957 416.681244,133.798950 416.510742,131.857697 
	C411.682983,131.857697 407.091187,131.857697 402.070984,131.857697 
	C402.070984,135.623566 402.070984,139.083450 402.070984,143.530563 
M210.026077,170.356705 
	C214.664322,183.344727 223.965927,189.825150 237.416870,190.305588 
	C249.149429,190.724640 260.662598,184.478333 263.211365,175.660217 
	C259.538849,174.069504 255.804398,172.451981 252.208084,170.894272 
	C245.635986,177.917892 239.584671,179.807175 232.353867,177.137772 
	C226.815292,175.093124 224.186752,170.820160 223.043991,164.427765 
	C237.519653,164.427765 251.412674,164.427765 266.166199,164.427765 
	C265.601501,159.116150 265.598175,154.428925 264.538239,149.994247 
	C261.457703,137.105728 252.026093,130.054474 238.343430,129.855499 
	C224.657562,129.656509 213.145248,137.094833 210.407822,149.393219 
	C208.973404,155.837692 209.964310,162.822006 210.026077,170.356705 
M278.922516,117.201447 
	C278.542297,121.913345 278.162109,126.625252 277.770782,131.475281 
	C274.456055,131.664276 271.375793,131.839890 268.471802,132.005463 
	C268.471802,136.211609 268.471802,139.946579 268.471802,143.795776 
	C271.823090,143.955154 274.760468,144.094833 278.191620,144.257996 
	C278.191620,153.343521 278.157837,162.124039 278.198944,170.904221 
	C278.274780,187.097900 290.429688,194.797699 305.376434,188.110229 
	C305.376434,184.516571 305.376434,180.909607 305.376434,176.922806 
	C302.986145,176.922806 300.846588,177.034836 298.723389,176.896072 
	C295.680725,176.697205 292.854614,175.681137 292.785889,172.122543 
	C292.607483,162.883392 292.725983,153.638504 292.725983,143.772003 
	C297.231659,143.772003 301.286560,143.772003 305.268127,143.772003 
	C305.268127,139.409485 305.268127,135.686783 305.268127,131.459473 
	C300.936218,131.459473 297.020386,131.459473 292.623962,131.459473 
	C292.623962,126.391502 292.623962,121.820656 292.623962,116.916718 
	C288.023529,116.916718 283.908783,116.916718 278.922516,117.201447 
z"/>
<path fill="#233864" opacity="1.000000" stroke="none" 
	d="
M1.000000,148.463181 
	C1.868709,147.126205 2.918872,146.370697 3.577590,145.360031 
	C9.149518,136.811035 18.342005,133.823532 27.452425,138.184753 
	C30.296284,139.546112 32.136921,139.296753 34.576694,137.614746 
	C42.800011,131.945557 51.138584,126.440559 59.511192,120.992828 
	C61.819988,119.490578 62.744751,118.126839 62.222260,115.015274 
	C60.708134,105.998322 66.064857,97.825996 74.521660,95.221817 
	C82.998177,92.611565 92.001129,96.047646 96.013664,103.424484 
	C100.394150,111.477783 98.557137,121.224113 91.242149,126.749390 
	C89.072998,128.387833 86.162956,130.028488 83.620590,129.985916 
	C78.263359,129.896194 76.114197,132.762848 74.362030,137.056152 
	C71.975502,142.903824 67.203781,148.612488 67.218849,154.370926 
	C67.233887,160.119781 72.046959,165.791977 74.456367,171.621857 
	C75.986595,175.324448 77.798653,177.231918 82.376846,177.217194 
	C89.312416,177.194901 94.161636,181.366165 96.817078,187.738235 
	C99.616524,194.455872 98.820969,200.851822 94.106567,206.468155 
	C89.244095,212.260849 82.815788,213.981216 75.620857,212.375076 
	C66.440247,210.325668 60.918205,202.536560 62.125652,193.088303 
	C62.514187,190.048035 61.660980,188.656097 59.221813,187.175232 
	C50.542042,181.905594 42.044792,176.335220 33.361340,171.071899 
	C32.033485,170.267044 29.811476,169.792572 28.471821,170.331238 
	C16.646852,175.085861 9.056587,172.681229 2.419946,161.766663 
	C2.255407,161.496063 1.939746,161.317383 1.347284,161.047913 
	C1.000000,156.975449 1.000000,152.950912 1.000000,148.463181 
M70.010330,176.417221 
	C69.389885,175.054749 68.804283,173.675125 68.142754,172.332901 
	C65.721611,167.420425 64.446243,160.789047 60.498112,158.118622 
	C56.793274,155.612793 50.204712,157.686020 44.972012,157.040054 
	C39.037590,156.307480 35.838764,158.351898 35.371193,164.828644 
	C45.151688,171.014191 55.235214,177.391373 66.176422,184.311005 
	C67.645805,181.716812 68.949684,179.414825 70.010330,176.417221 
M41.789948,151.139862 
	C47.123226,151.141235 52.459087,151.232941 57.787952,151.080292 
	C59.115940,151.042252 61.169373,150.589645 61.618324,149.691925 
	C65.089630,142.750748 68.248642,135.653381 72.024170,127.479065 
	C68.656296,126.698944 65.239021,124.733109 63.597282,125.720238 
	C53.917557,131.540375 44.651016,138.047684 34.969273,144.507797 
	C36.864059,147.066681 35.598404,151.823364 41.789948,151.139862 
z"/>
<path fill="#233864" opacity="1.000000" stroke="none" 
	d="
M518.000000,174.583344 
	C517.613586,175.263962 517.044067,175.439255 516.867188,175.804642 
	C509.518219,190.984055 487.559387,195.635040 474.715790,184.458633 
	C471.835724,181.952438 469.911591,178.347717 467.152374,174.730957 
	C472.070709,172.915970 475.922150,171.494675 480.054352,169.969772 
	C483.401947,177.008377 489.100189,179.898376 496.341217,178.460739 
	C498.759949,177.980515 501.908264,175.546021 502.608276,173.335281 
	C503.703705,169.875656 500.231689,168.276932 497.295227,167.337479 
	C492.400574,165.771576 487.327179,164.704483 482.540161,162.874969 
	C473.683350,159.490021 469.899384,154.185760 470.341064,146.684891 
	C470.807831,138.757812 476.189667,132.941010 485.126099,130.705032 
	C497.942505,127.498245 509.599091,131.443130 514.993469,140.833008 
	C515.398132,141.537430 515.664734,142.321213 516.213623,143.560760 
	C514.077698,144.425598 512.098999,145.128250 510.206207,146.014496 
	C506.721313,147.646240 503.949341,148.633224 501.083374,144.269272 
	C498.590576,140.473480 491.271423,139.830231 487.289886,142.271439 
	C485.910309,143.117294 484.237762,145.119324 484.383362,146.402100 
	C484.562317,147.979019 486.217560,150.083496 487.737793,150.681992 
	C492.201141,152.439163 496.898804,153.616119 501.531921,154.923828 
	C509.380829,157.139206 515.460327,161.186142 517.653442,169.880035 
	C518.000000,171.388885 518.000000,172.777786 518.000000,174.583344 
z"/>
<path fill="#D1D2D4" opacity="1.000000" stroke="none" 
	d="
M184.531342,1.000001 
	C183.020599,1.663142 181.042419,2.901167 179.061615,2.905362 
	C129.289139,3.010785 79.516380,2.999362 29.743763,2.933881 
	C27.897833,2.931453 26.052887,2.178658 24.103741,1.387774 
	C77.354225,1.000000 130.708450,1.000000 184.531342,1.000001 
z"/>
<path fill="#D1D2D4" opacity="1.000000" stroke="none" 
	d="
M259.531342,1.000001 
	C258.855042,1.660807 257.713165,2.891774 256.564697,2.897941 
	C235.123718,3.013073 213.681915,2.999079 192.240524,2.931545 
	C191.228043,2.928356 190.217911,2.178226 189.103348,1.387978 
	C212.354233,1.000000 235.708450,1.000000 259.531342,1.000001 
z"/>
<path fill="#D1D2D4" opacity="1.000000" stroke="none" 
	d="
M436.531342,0.999994 
	C436.191284,1.653333 435.389374,2.864460 434.572815,2.874420 
	C425.631866,2.983476 416.688446,2.923229 407.746521,2.830632 
	C407.230591,2.825289 406.721710,2.142362 406.104767,1.387388 
	C416.020905,1.000000 426.041779,1.000000 436.531342,0.999994 
z"/>
<path fill="#D1D2D4" opacity="1.000000" stroke="none" 
	d="
M480.531738,0.999999 
	C480.802185,1.446345 480.596710,2.285746 480.407715,2.282046 
	C474.340973,2.163259 468.275818,1.962985 462.105225,1.387478 
	C468.021149,1.000000 474.042297,1.000000 480.531738,0.999999 
z"/>
<path fill="#D1D2D4" opacity="1.000000" stroke="none" 
	d="
M387.532074,1.000004 
	C387.802002,1.446099 387.595917,2.285082 387.407135,2.281211 
	C381.672546,2.163628 375.939667,1.963118 370.103271,1.387770 
	C375.688049,1.000000 381.376068,1.000000 387.532074,1.000004 
z"/>
<path fill="#D1D2D4" opacity="1.000000" stroke="none" 
	d="
M458.532410,1.000003 
	C458.802124,1.445979 458.595734,2.284827 458.407623,2.280756 
	C453.006561,2.163903 447.607330,1.962511 442.103912,1.387403 
	C447.354919,1.000000 452.709869,1.000000 458.532410,1.000003 
z"/>
<path fill="#D1D2D4" opacity="1.000000" stroke="none" 
	d="
M332.532410,0.999998 
	C332.802734,1.445931 332.596985,2.284692 332.409424,2.280643 
	C327.007416,2.164017 321.607269,1.962952 316.103394,1.387762 
	C321.354919,1.000000 326.709869,1.000000 332.532410,0.999998 
z"/>
<path fill="#D1D2D4" opacity="1.000000" stroke="none" 
	d="
M300.533142,1.000002 
	C300.360626,1.635145 299.695251,2.842123 299.085968,2.814440 
	C294.452759,2.603912 289.830505,2.152008 285.102417,1.387650 
	C290.022095,1.000000 295.044189,1.000000 300.533142,1.000002 
z"/>
<path fill="#D1D2D4" opacity="1.000000" stroke="none" 
	d="
M276.535339,1.000000 
	C274.499542,3.476637 267.690948,3.857850 263.102539,1.386189 
	C267.356903,1.000000 271.713806,1.000000 276.535339,1.000000 
z"/>
<path fill="#D1D2D4" opacity="1.000000" stroke="none" 
	d="
M363.545898,1.000000 
	C360.989838,4.579423 357.610779,3.392701 354.098572,1.379344 
	C357.030609,1.000000 360.061188,1.000000 363.545898,1.000000 
z"/>
<path fill="#D1D2D4" opacity="1.000000" stroke="none" 
	d="
M343.550018,1.000000 
	C341.342285,4.504484 338.277924,3.260215 335.095581,1.377161 
	C337.700012,1.000000 340.400024,1.000000 343.550018,1.000000 
z"/>
<path fill="#D1D2D4" opacity="1.000000" stroke="none" 
	d="
M310.562500,1.000000 
	C309.044525,4.206717 306.668793,3.510861 304.088379,1.367392 
	C306.041656,1.000000 308.083344,1.000000 310.562500,1.000000 
z"/>
<path fill="#D1D2D4" opacity="1.000000" stroke="none" 
	d="
M399.571533,1.000000 
	C398.423828,4.234449 396.349152,3.411316 394.083710,1.358279 
	C395.714355,1.000000 397.428711,1.000000 399.571533,1.000000 
z"/>
<path fill="#D1D2D4" opacity="1.000000" stroke="none" 
	d="
M19.583334,1.000000 
	C18.768295,3.889114 17.084040,3.657905 15.074927,1.351716 
	C16.388889,1.000000 17.777779,1.000000 19.583334,1.000000 
z"/>
<path fill="#D1D2D4" opacity="1.000000" stroke="none" 
	d="
M518.000000,2.500002 
	C517.039734,2.558279 516.079407,2.116553 515.059570,1.337414 
	C516.000000,1.333333 517.000000,1.666667 518.000000,2.500002 
z"/>
<path fill="#D1D2D4" opacity="1.000000" stroke="none" 
	d="
M2.500000,1.000000 
	C2.541890,1.628375 2.083781,2.256751 1.312835,2.942563 
	C1.333333,2.333333 1.666667,1.666667 2.500000,1.000000 
z"/>
<path fill="#243965" opacity="1.000000" stroke="none" 
	d="
M177.506531,180.545044 
	C166.998520,165.105240 156.708481,149.953461 146.396774,134.816406 
	C146.261841,134.618317 145.852219,134.607346 145.077728,134.336761 
	C145.077728,152.380585 145.077728,170.239655 145.077728,188.416458 
	C140.014099,188.416458 135.431625,188.416458 130.499573,188.416458 
	C130.499573,162.769852 130.499573,137.205032 130.499573,110.914009 
	C135.998260,110.914009 141.589355,110.757095 147.156754,111.050285 
	C148.232422,111.106934 149.413528,112.788063 150.211197,113.949722 
	C161.146225,129.874496 172.021179,145.840515 182.917770,161.791718 
	C183.355881,162.433044 183.861908,163.027969 185.134155,164.681488 
	C185.134155,146.171356 185.134155,128.856293 185.134155,111.195557 
	C190.264069,111.195557 194.823853,111.195557 199.714539,111.195557 
	C199.714539,136.810272 199.714539,162.379608 199.714539,187.917755 
	C188.083710,190.795288 183.378738,189.263901 177.506531,180.545044 
z"/>
<path fill="#213763" opacity="1.000000" stroke="none" 
	d="
M318.673706,173.286499 
	C306.717316,153.629501 310.605804,129.756973 327.591431,116.939995 
	C346.041321,103.018097 374.925079,107.877373 387.075806,127.185326 
	C397.044922,143.026596 397.373413,172.555481 372.092529,185.823792 
	C354.245483,195.190567 330.862061,189.901093 318.673706,173.286499 
M329.223358,160.893295 
	C335.692291,174.060196 349.142273,179.565842 362.063782,174.336212 
	C374.635376,169.248184 380.816681,155.015625 376.481232,141.139771 
	C372.312927,127.798836 360.046021,120.787094 346.428894,123.961945 
	C331.440399,127.456520 323.728455,143.474152 329.223358,160.893295 
z"/>
<path fill="#233864" opacity="1.000000" stroke="none" 
	d="
M402.070984,143.036957 
	C402.070984,139.083450 402.070984,135.623566 402.070984,131.857697 
	C407.091187,131.857697 411.682983,131.857697 416.510742,131.857697 
	C416.681244,133.798950 416.837524,135.577957 416.932556,136.659851 
	C421.949646,134.520309 426.911255,131.280640 432.278839,130.327667 
	C447.929230,127.549057 461.621552,138.231277 462.820801,154.264069 
	C463.302979,160.710175 462.826324,167.829773 460.527679,173.768768 
	C453.755402,191.266220 431.045074,195.983307 416.950562,182.593430 
	C416.950562,192.506577 416.950562,201.824249 416.950562,211.450974 
	C411.739685,211.450974 407.185486,211.450974 402.070984,211.450974 
	C402.070984,188.677505 402.070984,166.104034 402.070984,143.036957 
M416.750641,159.587738 
	C416.515625,166.130386 418.351685,171.737869 424.177856,175.391846 
	C429.900208,178.980713 437.386169,178.527618 442.322021,174.429459 
	C448.151917,169.588974 450.338409,160.059891 447.335510,152.579315 
	C444.549377,145.638763 437.882294,141.596802 430.795044,142.551575 
	C422.637390,143.650574 417.822968,149.188507 416.750641,159.587738 
z"/>
<path fill="#233864" opacity="1.000000" stroke="none" 
	d="
M209.943008,169.959625 
	C209.964310,162.822006 208.973404,155.837692 210.407822,149.393219 
	C213.145248,137.094833 224.657562,129.656509 238.343430,129.855499 
	C252.026093,130.054474 261.457703,137.105728 264.538239,149.994247 
	C265.598175,154.428925 265.601501,159.116150 266.166199,164.427765 
	C251.412674,164.427765 237.519653,164.427765 223.043991,164.427765 
	C224.186752,170.820160 226.815292,175.093124 232.353867,177.137772 
	C239.584671,179.807175 245.635986,177.917892 252.208084,170.894272 
	C255.804398,172.451981 259.538849,174.069504 263.211365,175.660217 
	C260.662598,184.478333 249.149429,190.724640 237.416870,190.305588 
	C223.965927,189.825150 214.664322,183.344727 209.943008,169.959625 
M231.490356,142.695679 
	C226.857056,144.980301 224.293365,148.650375 223.422211,154.140869 
	C232.892441,154.140869 241.763901,154.140869 250.647537,154.140869 
	C250.239716,144.215927 243.390442,139.948883 231.490356,142.695679 
z"/>
<path fill="#243965" opacity="1.000000" stroke="none" 
	d="
M279.358276,117.059082 
	C283.908783,116.916718 288.023529,116.916718 292.623962,116.916718 
	C292.623962,121.820656 292.623962,126.391502 292.623962,131.459473 
	C297.020386,131.459473 300.936218,131.459473 305.268127,131.459473 
	C305.268127,135.686783 305.268127,139.409485 305.268127,143.772003 
	C301.286560,143.772003 297.231659,143.772003 292.725983,143.772003 
	C292.725983,153.638504 292.607483,162.883392 292.785889,172.122543 
	C292.854614,175.681137 295.680725,176.697205 298.723389,176.896072 
	C300.846588,177.034836 302.986145,176.922806 305.376434,176.922806 
	C305.376434,180.909607 305.376434,184.516571 305.376434,188.110229 
	C290.429688,194.797699 278.274780,187.097900 278.198944,170.904221 
	C278.157837,162.124039 278.191620,153.343521 278.191620,144.257996 
	C274.760468,144.094833 271.823090,143.955154 268.471802,143.795776 
	C268.471802,139.946579 268.471802,136.211609 268.471802,132.005463 
	C271.375793,131.839890 274.456055,131.664276 277.770782,131.475281 
	C278.162109,126.625252 278.542297,121.913345 279.358276,117.059082 
z"/>
<path fill="#DBDEE5" opacity="1.000000" stroke="none" 
	d="
M70.131950,176.765030 
	C68.949684,179.414825 67.645805,181.716812 66.176422,184.311005 
	C55.235214,177.391373 45.151688,171.014191 35.371193,164.828644 
	C35.838764,158.351898 39.037590,156.307480 44.972012,157.040054 
	C50.204712,157.686020 56.793274,155.612793 60.498112,158.118622 
	C64.446243,160.789047 65.721611,167.420425 68.142754,172.332901 
	C68.804283,173.675125 69.389885,175.054749 70.131950,176.765030 
z"/>
<path fill="#DDE0E6" opacity="1.000000" stroke="none" 
	d="
M41.332481,151.139847 
	C35.598404,151.823364 36.864059,147.066681 34.969273,144.507797 
	C44.651016,138.047684 53.917557,131.540375 63.597282,125.720238 
	C65.239021,124.733109 68.656296,126.698944 72.024170,127.479065 
	C68.248642,135.653381 65.089630,142.750748 61.618324,149.691925 
	C61.169373,150.589645 59.115940,151.042252 57.787952,151.080292 
	C52.459087,151.232941 47.123226,151.141235 41.332481,151.139847 
z"/>
<path fill="#E0E2E5" opacity="1.000000" stroke="none" 
	d="
M329.119385,160.511475 
	C323.728455,143.474152 331.440399,127.456520 346.428894,123.961945 
	C360.046021,120.787094 372.312927,127.798836 376.481232,141.139771 
	C380.816681,155.015625 374.635376,169.248184 362.063782,174.336212 
	C349.142273,179.565842 335.692291,174.060196 329.119385,160.511475 
z"/>
<path fill="#DFE1E6" opacity="1.000000" stroke="none" 
	d="
M416.754639,159.142548 
	C417.822968,149.188507 422.637390,143.650574 430.795044,142.551575 
	C437.882294,141.596802 444.549377,145.638763 447.335510,152.579315 
	C450.338409,160.059891 448.151917,169.588974 442.322021,174.429459 
	C437.386169,178.527618 429.900208,178.980713 424.177856,175.391846 
	C418.351685,171.737869 416.515625,166.130386 416.754639,159.142548 
z"/>
<path fill="#DBDFE5" opacity="1.000000" stroke="none" 
	d="
M231.836060,142.517090 
	C243.390442,139.948883 250.239716,144.215927 250.647537,154.140869 
	C241.763901,154.140869 232.892441,154.140869 223.422211,154.140869 
	C224.293365,148.650375 226.857056,144.980301 231.836060,142.517090 
z"/>
</svg>